<svg width="64" height="64" viewBox="0 0 64 64" fill="none" xmlns="http://www.w3.org/2000/svg">
<path d="M8.6999 19.7005L53.0721 18.6355C54.9769 18.5898 56.4783 20.2457 56.2467 22.1369L53.5767 43.9423C53.3804 45.5453 51.994 46.7342 50.3798 46.6839L11.0618 45.4575C9.52141 45.4094 8.2464 44.2447 8.05952 42.715L5.67514 23.201C5.45139 21.3698 6.85555 19.7448 8.6999 19.7005Z" fill="#F0F3FD"/>
<path d="M10.3021 19.6621V25.022H5.89758" stroke="#B8C7F8" stroke-linecap="round" stroke-linejoin="round"/>
<path d="M10.3021 25.0219L11.3833 26.1033V42.6859L12.1545 43.457V45.4917" stroke="#B8C7F8" stroke-linecap="round" stroke-linejoin="round"/>
<path d="M11.3834 26.1032H5.9978" stroke="#B8C7F8" stroke-linecap="round" stroke-linejoin="round"/>
<path d="M11.3834 42.6859H8.05951" stroke="#B8C7F8" stroke-linecap="round" stroke-linejoin="round"/>
<path d="M12.1545 43.457H8.24487" stroke="#B8C7F8" stroke-linecap="round" stroke-linejoin="round"/>
<path d="M6.14691 27.0623H9.83267C10.092 27.0623 10.302 27.2725 10.302 27.5317V41.169C10.302 41.4282 10.092 41.6384 9.83267 41.6384H7.9279" stroke="#B8C7F8" stroke-linecap="round" stroke-linejoin="round"/>
<path d="M8.87805 28.7112H8.07575C7.8712 28.7112 7.70544 28.5454 7.70544 28.3409C7.70544 28.1363 7.8712 27.9706 8.07575 27.9706H8.87805C9.0826 27.9706 9.24836 28.1363 9.24836 28.3409C9.24836 28.5454 9.0826 28.7112 8.87805 28.7112Z" stroke="#B8C7F8" stroke-linecap="round" stroke-linejoin="round"/>
<path d="M8.85057 19.6648V23.0557C8.85057 23.263 8.6825 23.431 8.47514 23.431C8.26791 23.431 8.09998 23.263 8.09998 23.0557V19.7733" stroke="#B8C7F8" stroke-linecap="round" stroke-linejoin="round"/>
<path d="M6.95793 20.2448V23.0558C6.95793 23.2631 6.78986 23.4312 6.5825 23.4312C6.37527 23.4312 6.20734 23.2631 6.20734 23.0558V21.0738" stroke="#B8C7F8" stroke-linecap="round" stroke-linejoin="round"/>
<path d="M54.971 26.1467C54.7636 26.1467 54.5956 25.9788 54.5956 25.7714V22.3806C54.5956 22.1732 54.7636 22.0051 54.971 22.0051C55.1784 22.0051 55.3464 22.1732 55.3464 22.3806V25.7714C55.3464 25.9788 55.1784 26.1467 54.971 26.1467Z" stroke="#B8C7F8" stroke-linecap="round" stroke-linejoin="round"/>
<path d="M53.0785 26.1467C52.8711 26.1467 52.7031 25.9788 52.7031 25.7714V22.3806C52.7031 22.1732 52.8711 22.0051 53.0785 22.0051C53.2858 22.0051 53.4539 22.1732 53.4539 22.3806V25.7714C53.4539 25.9788 53.2858 26.1467 53.0785 26.1467Z" stroke="#B8C7F8" stroke-linecap="round" stroke-linejoin="round"/>
<path d="M43.1963 38.4563C42.9889 38.4563 42.8209 38.2883 42.8209 38.0809V34.6902C42.8209 34.4828 42.9889 34.3148 43.1963 34.3148C43.4036 34.3148 43.5717 34.4828 43.5717 34.6902V38.0809C43.5717 38.2883 43.4036 38.4563 43.1963 38.4563Z" stroke="#B8C7F8" stroke-linecap="round" stroke-linejoin="round"/>
<path d="M41.3036 38.4563C41.0963 38.4563 40.9282 38.2883 40.9282 38.0809V34.6902C40.9282 34.4828 41.0963 34.3148 41.3036 34.3148C41.511 34.3148 41.6791 34.4828 41.6791 34.6902V38.0809C41.6791 38.2883 41.511 38.4563 41.3036 38.4563Z" stroke="#B8C7F8" stroke-linecap="round" stroke-linejoin="round"/>
<path d="M12.1545 42.247H53.6878" stroke="#B8C7F8" stroke-linecap="round" stroke-linejoin="round"/>
<path d="M55.3464 19.529H52.6433L51.5281 20.6444H56.0657" stroke="#B8C7F8" stroke-linecap="round" stroke-linejoin="round"/>
<path d="M51.5281 20.6443V31.7382" stroke="#B8C7F8" stroke-linecap="round" stroke-linejoin="round"/>
<path d="M45.7831 32.1605H40.9694L39.9072 33.2229H45.6611" stroke="#B8C7F8" stroke-linecap="round" stroke-linejoin="round"/>
<path d="M39.9072 33.2228V40.6836" stroke="#B8C7F8" stroke-linecap="round" stroke-linejoin="round"/>
<path d="M55.6378 27.1091H53.1298C52.8942 27.1091 52.7031 27.3002 52.7031 27.5359V29.354C52.7031 29.5898 52.8942 29.7807 53.1298 29.7807H55.3107" stroke="#B8C7F8" stroke-linecap="round" stroke-linejoin="round"/>
<path d="M54.6743 34.9786H50.8875V37.1866H54.4038" stroke="#B8C7F8" stroke-linecap="round" stroke-linejoin="round"/>
<mask id="mask0_402_827" style="mask-type:luminance" maskUnits="userSpaceOnUse" x="0" y="0" width="64" height="64">
<path d="M0 0H64V64H0V0Z" fill="white"/>
</mask>
<g mask="url(#mask0_402_827)">
<mask id="mask1_402_827" style="mask-type:luminance" maskUnits="userSpaceOnUse" x="35" y="14" width="4" height="5">
<path d="M35.072 14.72H38.912V18.56H35.072V14.72Z" fill="white"/>
</mask>
<g mask="url(#mask1_402_827)">
<path d="M37.1508 16.8996C37.175 16.7825 37.2356 16.6745 37.324 16.5925L37.3242 16.5923C37.3467 16.5702 37.3989 16.5279 37.3844 16.5142C37.3751 16.5054 37.3239 16.4948 37.2879 16.4883C37.2762 16.4865 37.2647 16.4846 37.2531 16.4823L37.2522 16.482C37.1477 16.4606 37.0509 16.4102 36.9736 16.3372L36.9731 16.3367L36.9726 16.3362C36.9658 16.3296 36.9592 16.3231 36.9527 16.3163C36.9268 16.2908 36.8843 16.2509 36.871 16.2482C36.8599 16.246 36.8536 16.2664 36.8492 16.2903C36.8427 16.4441 36.7735 16.5898 36.6596 16.6929C36.6348 16.7185 36.6045 16.7517 36.6021 16.7632C36.5988 16.7793 36.6437 16.7851 36.6769 16.7895C36.833 16.8046 36.9776 16.8839 37.0737 17.008C37.0914 17.0257 37.1093 17.04 37.1173 17.0315C37.1312 17.0169 37.1503 16.8994 37.1503 16.8994L37.1508 16.8996Z" fill="#0EC958"/>
</g>
<mask id="mask2_402_827" style="mask-type:luminance" maskUnits="userSpaceOnUse" x="12" y="38" width="3" height="4">
<path d="M12.096 38.72H14.784V41.408H12.096V38.72Z" fill="white"/>
</mask>
<g mask="url(#mask2_402_827)">
<path d="M13.6722 40.0089C13.5909 39.9633 13.525 39.8928 13.4852 39.808L13.4851 39.8078C13.4741 39.7859 13.4551 39.7372 13.4415 39.7447C13.4327 39.7495 13.4124 39.785 13.399 39.8101C13.3949 39.8184 13.3906 39.8265 13.3861 39.8345L13.3857 39.8351C13.3447 39.9075 13.2839 39.9673 13.211 40.0073L13.2105 40.0076L13.21 40.0078C13.2035 40.0113 13.197 40.0147 13.1904 40.0179C13.1652 40.0311 13.1253 40.0531 13.1201 40.0623C13.1158 40.07 13.1295 40.0795 13.1462 40.0885C13.2592 40.1296 13.351 40.2153 13.4004 40.3241C13.4135 40.3485 13.4309 40.3788 13.4389 40.3833C13.4501 40.3895 13.4652 40.3577 13.4765 40.3341C13.5252 40.2219 13.619 40.1335 13.7344 40.0917C13.7519 40.0827 13.7668 40.0728 13.7624 40.0649C13.7549 40.0512 13.672 40.0092 13.672 40.0092L13.6722 40.0089Z" fill="#0EC958"/>
</g>
<mask id="mask3_402_827" style="mask-type:luminance" maskUnits="userSpaceOnUse" x="27" y="14" width="4" height="5">
<path d="M27.008 14.656H30.464V18.112H27.008V14.656Z" fill="white"/>
</mask>
<g mask="url(#mask3_402_827)">
<path d="M28.6459 16.6559C28.7446 16.6018 28.8589 16.5795 28.9712 16.5931L28.9714 16.5931C29.0009 16.5958 29.0628 16.6075 29.0639 16.5888C29.0646 16.5767 29.0412 16.5333 29.0241 16.5035C29.0183 16.494 29.0128 16.4845 29.0074 16.4747L29.007 16.4739C28.9593 16.3856 28.9368 16.2851 28.9426 16.1849L28.9426 16.1842L28.9427 16.1836C28.9433 16.1747 28.9439 16.1659 28.9449 16.1571C28.9475 16.1229 28.9505 16.0679 28.9444 16.0567C28.9393 16.0474 28.9208 16.0553 28.901 16.0667C28.7866 16.156 28.6402 16.1951 28.4973 16.1761C28.4639 16.1739 28.4218 16.1724 28.412 16.1776C28.3985 16.1851 28.4214 16.2209 28.4384 16.2475C28.522 16.3692 28.5525 16.5217 28.5215 16.6666C28.5195 16.6902 28.52 16.7118 28.531 16.7123C28.5498 16.7134 28.6458 16.6554 28.6458 16.6554L28.6459 16.6559Z" fill="#AD64F1"/>
</g>
<mask id="mask4_402_827" style="mask-type:luminance" maskUnits="userSpaceOnUse" x="27" y="12" width="4" height="3">
<path d="M27.776 12.032H30.464V14.72H27.776V12.032Z" fill="white"/>
</mask>
<g mask="url(#mask4_402_827)">
<path d="M29.3372 13.4215C29.2869 13.3508 29.2596 13.2655 29.2598 13.1784L29.2598 13.1782C29.2592 13.1554 29.2626 13.107 29.2481 13.1078C29.2388 13.1084 29.2077 13.1301 29.1865 13.1459C29.1797 13.1512 29.173 13.1563 29.166 13.1613L29.1654 13.1616C29.1022 13.2061 29.0273 13.2323 28.9501 13.2369L28.9496 13.237L28.9491 13.2369C28.9423 13.2373 28.9355 13.2376 28.9286 13.2377C28.9022 13.2387 28.8599 13.2414 28.8519 13.247C28.8452 13.2518 28.853 13.2652 28.8635 13.2794C28.9421 13.3588 28.9852 13.4673 28.9836 13.5782C28.9849 13.604 28.9875 13.6364 28.9925 13.6433C28.9994 13.653 29.0247 13.6322 29.0436 13.6169C29.1291 13.542 29.243 13.505 29.3566 13.5157C29.3749 13.5151 29.3913 13.5127 29.3907 13.5043C29.3899 13.4898 29.3369 13.4216 29.3369 13.4216L29.3372 13.4215Z" fill="#AD64F1"/>
</g>
<mask id="mask5_402_827" style="mask-type:luminance" maskUnits="userSpaceOnUse" x="9" y="36" width="5" height="4">
<path d="M9.79199 36.032H13.632V39.872H9.79199V36.032Z" fill="white"/>
</mask>
<g mask="url(#mask5_402_827)">
<path d="M12.0156 37.9129C11.9176 37.8441 11.8426 37.7457 11.8028 37.6325L11.8027 37.6323C11.7914 37.603 11.7734 37.5386 11.755 37.5463C11.7432 37.5512 11.7128 37.5936 11.6924 37.6237C11.6861 37.6336 11.6796 37.6433 11.6728 37.653L11.6723 37.6537C11.6105 37.7401 11.5253 37.8081 11.427 37.8492L11.4263 37.8495L11.4257 37.8497C11.417 37.8532 11.4082 37.8567 11.3994 37.8599C11.3656 37.8732 11.3118 37.8959 11.304 37.9069C11.2975 37.9161 11.3137 37.93 11.3339 37.9436C11.4728 38.011 11.579 38.1322 11.628 38.277C11.6417 38.3098 11.66 38.3506 11.6696 38.3574C11.6831 38.3669 11.7065 38.3284 11.7239 38.2999C11.8006 38.1639 11.9316 38.0641 12.0844 38.0264C12.1078 38.0173 12.1281 38.0068 12.1235 37.9961C12.1157 37.9776 12.0152 37.9132 12.0152 37.9132L12.0156 37.9129Z" fill="#FF637B"/>
</g>
<mask id="mask6_402_827" style="mask-type:luminance" maskUnits="userSpaceOnUse" x="24" y="12" width="3" height="4">
<path d="M24.256 12.8H26.56V15.104H24.256V12.8Z" fill="white"/>
</mask>
<g mask="url(#mask6_402_827)">
<path d="M25.5723 14.0518C25.5517 13.9795 25.5541 13.9018 25.5796 13.8307L25.5797 13.8305C25.5858 13.8117 25.6026 13.7732 25.5906 13.7697C25.5828 13.7674 25.5511 13.7762 25.5291 13.7829C25.5221 13.7853 25.5151 13.7875 25.5079 13.7895L25.5073 13.7897C25.4428 13.8077 25.374 13.8073 25.3096 13.7887L25.3091 13.7886L25.3087 13.7885C25.303 13.7868 25.2974 13.785 25.2918 13.7831C25.2699 13.7763 25.2346 13.7662 25.2264 13.7685C25.2195 13.7705 25.222 13.7837 25.2265 13.7983C25.2676 13.886 25.2713 13.9872 25.2378 14.0774C25.2314 14.0988 25.2241 14.126 25.2261 14.1332C25.229 14.1431 25.2557 14.1335 25.2756 14.1264C25.3672 14.09 25.471 14.0927 25.5608 14.1345C25.5759 14.1393 25.59 14.1421 25.5919 14.135C25.5955 14.1229 25.572 14.0518 25.572 14.0518L25.5723 14.0518Z" fill="#FF637B"/>
</g>
</g>
<path d="M36.3715 11.4351L40.7831 11.8865C41.0033 11.9073 41.1891 12.097 41.2026 12.3148L41.3625 14.8997L41.412 14.894L41.7109 14.9878L41.7723 15.3606L41.2361 15.2511C41.2103 15.2486 41.1835 15.239 41.1584 15.2211L40.7317 14.9184C40.6533 14.8627 40.5617 14.8326 40.4713 14.8328L36.8498 14.916L36.8197 14.9967L36.5183 14.9077C36.5095 14.9059 36.5011 14.9023 36.4924 14.9L36.4461 14.8863L36.4457 14.8854C36.2817 14.8218 36.1549 14.665 36.1438 14.4861L35.9783 11.8098C35.9642 11.583 36.1421 11.4134 36.3715 11.4351Z" fill="#B8C7F8"/>
<path d="M36.3715 11.4351L40.7831 11.8865C41.0033 11.9073 41.1891 12.097 41.2026 12.3148L41.3625 14.8997L41.412 14.894L41.7109 14.9878L41.7723 15.3606L41.2361 15.2511C41.2103 15.2486 41.1835 15.239 41.1584 15.2211L40.7317 14.9184C40.6533 14.8627 40.5617 14.8326 40.4713 14.8328L36.8498 14.916L36.8197 14.9967L36.5183 14.9077C36.5095 14.9059 36.5011 14.9023 36.4924 14.9L36.4461 14.8863L36.4457 14.8854C36.2817 14.8218 36.1549 14.665 36.1438 14.4861L35.9783 11.8098C35.9642 11.583 36.1421 11.4134 36.3715 11.4351Z" stroke="#B8C7F8" stroke-linecap="round" stroke-linejoin="round"/>
<path d="M41.9332 15.2252L41.7533 12.3159C41.7393 12.09 41.5464 11.893 41.3179 11.8714L36.6962 11.4003C36.4583 11.3777 36.2734 11.5535 36.288 11.789L36.4599 14.5663C36.4749 14.8082 36.6935 15.0131 36.9361 15.0129L40.9942 14.9291C41.0879 14.929 41.1831 14.9602 41.2644 15.0178L41.7074 15.3322C41.8107 15.4056 41.9405 15.344 41.9332 15.2252Z" fill="#FFFEFF"/>
<path d="M41.9332 15.2252L41.7533 12.3159C41.7393 12.09 41.5464 11.893 41.3179 11.8714L36.6962 11.4003C36.4583 11.3777 36.2734 11.5535 36.288 11.789L36.4599 14.5663C36.4749 14.8082 36.6935 15.0131 36.9361 15.0129L40.9942 14.9291C41.0879 14.929 41.1831 14.9602 41.2644 15.0178L41.7074 15.3322C41.8107 15.4056 41.9405 15.344 41.9332 15.2252Z" stroke="#B8C7F8" stroke-linecap="round" stroke-linejoin="round"/>
<path d="M37.6816 14.0119L38.4699 13.3708C38.661 13.2154 38.9406 13.2372 39.1052 13.4205C39.2761 13.6108 39.5688 13.6261 39.7585 13.4548L40.5393 12.7503" stroke="#3A3680" stroke-linecap="round" stroke-linejoin="round"/>
<path d="M40.6549 12.9897L40.8121 12.5041L40.3126 12.6107L40.6549 12.9897Z" fill="#3A3680"/>
<mask id="mask7_402_827" style="mask-type:luminance" maskUnits="userSpaceOnUse" x="0" y="0" width="64" height="64">
<path d="M0 0H64V64H0V0Z" fill="white"/>
</mask>
<g mask="url(#mask7_402_827)">
<path d="M36.8147 16.1439C36.796 15.8068 36.5244 15.539 36.1871 15.5249L13.0043 14.5552L12.7919 14.3268L12.1064 14.5909C12.068 14.6035 12.0306 14.6178 11.9942 14.634L11.9931 14.6346C11.5666 14.8259 11.2777 15.2689 11.3161 15.7708L12.731 34.258C12.7694 34.7595 13.124 35.1581 13.5817 35.2801L14.1416 35.4858C14.1416 35.4858 14.3846 35.4673 14.5134 35.258L37.1181 32.83C37.4652 32.7928 37.7222 32.49 37.7029 32.1414L36.8147 16.1439Z" fill="#C979F3"/>
<path d="M13.2219 14.2645L37.514 15.2807C37.86 15.2952 38.1386 15.5699 38.1578 15.9157L39.0691 32.3289C39.0889 32.6867 38.8251 32.9972 38.469 33.0355L14.7503 35.5832C14.0886 35.6542 13.499 35.164 13.4483 34.5004L11.9967 15.533C11.9428 14.8285 12.516 14.235 13.2219 14.2645Z" fill="#3A3680"/>
<path d="M37.5039 22.1354L14.0696 22.4925" stroke="#363450" stroke-linecap="round" stroke-linejoin="round"/>
<path d="M13.802 17.0521H16.6734C16.7593 17.0521 16.827 16.9791 16.8206 16.8935L16.7778 16.3162C16.7718 16.2354 16.7054 16.1725 16.6244 16.1707L13.7665 16.1091C13.6671 16.1069 13.5873 16.191 13.595 16.2904L13.642 16.9039C13.6484 16.9874 13.7181 17.0521 13.802 17.0521Z" fill="#F8E880"/>
<path d="M14.926 21.2445L17.0654 19.1462L18.9991 20.9016L21.3443 18.4698L24.4188 19.2016L25.094 17.7885L27.8861 20.7096L28.7912 19.3812L31.4518 18.4698L33.029 19.99L34.469 20.7096L35.7032 18.1149" stroke="#F8E880" stroke-linecap="round" stroke-linejoin="round"/>
<path d="M33.9464 20.4483L34.469 20.7096L34.7535 20.1113" stroke="#F4829B" stroke-width="3" stroke-linecap="round" stroke-linejoin="round"/>
<path d="M27.4893 20.2943L27.8861 20.7096L28.1626 20.3038" stroke="#F4829B" stroke-width="3" stroke-linecap="round" stroke-linejoin="round"/>
<path d="M18.3381 20.3012L18.9993 20.9016L19.5712 20.3085" stroke="#F4829B" stroke-width="3" stroke-linecap="round" stroke-linejoin="round"/>
<path d="M30.7509 18.7098L31.4518 18.4698L32.0859 19.0809" stroke="#C979F3" stroke-width="3" stroke-linecap="round" stroke-linejoin="round"/>
<path d="M24.8234 18.3551L25.0943 17.7885L25.7868 18.513" stroke="#C979F3" stroke-width="3" stroke-linecap="round" stroke-linejoin="round"/>
<path d="M20.7766 19.0585L21.3444 18.4697L22.3262 18.7034" stroke="#C979F3" stroke-width="3" stroke-linecap="round" stroke-linejoin="round"/>
<path d="M16.2554 19.9408L17.0656 19.1462L17.9214 19.9231" stroke="#C979F3" stroke-width="3" stroke-linecap="round" stroke-linejoin="round"/>
<path d="M16.693 32.1843L16.1014 23.5612" stroke="#363450" stroke-width="3" stroke-miterlimit="10"/>
<path d="M19.5442 31.9546L18.9684 23.4908" stroke="#363450" stroke-width="3" stroke-miterlimit="10"/>
<path d="M22.1321 31.7462L21.5482 23.4275" stroke="#363450" stroke-width="3" stroke-miterlimit="10"/>
<path d="M24.4881 31.5033L23.9799 23.2668" stroke="#363450" stroke-width="3" stroke-miterlimit="10"/>
<path d="M26.6512 31.3823L26.1244 23.3155" stroke="#363450" stroke-width="3" stroke-miterlimit="10"/>
<path d="M28.6359 31.2225L28.1172 23.2668" stroke="#363450" stroke-width="3" stroke-miterlimit="10"/>
<path d="M30.4658 31.0751L30.0037 23.2221" stroke="#363450" stroke-width="3" stroke-miterlimit="10"/>
<path d="M32.1583 30.9388L31.6909 23.1792" stroke="#363450" stroke-width="3" stroke-miterlimit="10"/>
<path d="M33.7287 30.8124L33.3511 23.1792" stroke="#363450" stroke-width="3" stroke-miterlimit="10"/>
<path d="M35.1893 30.6947L34.8206 23.102" stroke="#363450" stroke-width="3" stroke-miterlimit="10"/>
<path d="M36.5512 30.585L36.1475 23.0594" stroke="#363450" stroke-width="3" stroke-miterlimit="10"/>
<path d="M16.5483 29.409L16.7295 31.9398" stroke="#C979F3" stroke-width="4" stroke-linecap="round" stroke-linejoin="round"/>
<path d="M16.6392 30.6782L16.7295 31.9398" stroke="#F4829B" stroke-width="4" stroke-linecap="round" stroke-linejoin="round"/>
<path d="M19.2909 27.796L19.4673 30.3473" stroke="#F4829B" stroke-width="4" stroke-linecap="round" stroke-linejoin="round"/>
<path d="M19.3847 29.1543L19.4671 30.3473" stroke="#C979F3" stroke-width="4" stroke-linecap="round" stroke-linejoin="round"/>
<path d="M21.6328 23.9056L21.8278 26.8248" stroke="#C979F3" stroke-width="4" stroke-linecap="round" stroke-linejoin="round"/>
<path d="M21.7295 25.3528L21.8278 26.8248" stroke="#F4829B" stroke-width="4" stroke-linecap="round" stroke-linejoin="round"/>
<path d="M24.1146 26.2817L24.2968 29.1005" stroke="#F4829B" stroke-width="4" stroke-linecap="round" stroke-linejoin="round"/>
<path d="M24.2098 27.7537L24.2968 29.1005" stroke="#C979F3" stroke-width="4" stroke-linecap="round" stroke-linejoin="round"/>
<path d="M30.2595 27.8643L30.4115 30.4296" stroke="#F4829B" stroke-width="3.7" stroke-linecap="round" stroke-linejoin="round"/>
<path d="M30.3331 29.1045L30.4117 30.4298" stroke="#C979F3" stroke-width="3.7" stroke-linecap="round" stroke-linejoin="round"/>
<path d="M31.8705 25.7193L32.0031 28.0156" stroke="#C979F3" stroke-width="3.6" stroke-linecap="round" stroke-linejoin="round"/>
<path d="M31.946 27.028L32.0031 28.0157" stroke="#F4829B" stroke-width="3.6" stroke-linecap="round" stroke-linejoin="round"/>
<path d="M33.321 23.8146L33.4477 26.0643" stroke="#F4829B" stroke-width="3.5" stroke-linecap="round" stroke-linejoin="round"/>
<path d="M33.397 25.1646L33.4477 26.0644" stroke="#C979F3" stroke-width="3.5" stroke-linecap="round" stroke-linejoin="round"/>
<path d="M34.9713 26.7888L35.0793 28.7503" stroke="#C979F3" stroke-width="3.5" stroke-linecap="round" stroke-linejoin="round"/>
<path d="M35.015 27.5846L35.0793 28.7504" stroke="#F4829B" stroke-width="3.5" stroke-linecap="round" stroke-linejoin="round"/>
<path d="M36.2479 25.123L36.3674 27.3428" stroke="#C979F3" stroke-width="3.3" stroke-linecap="round" stroke-linejoin="round"/>
<path d="M36.301 26.1076L36.3675 27.3428" stroke="#F4829B" stroke-width="3.3" stroke-linecap="round" stroke-linejoin="round"/>
<path d="M26.3977 27.3415L26.5728 30.1304" stroke="#C979F3" stroke-width="4" stroke-linecap="round" stroke-linejoin="round"/>
<path d="M26.4894 28.8012L26.5728 30.1304" stroke="#F4829B" stroke-width="4" stroke-linecap="round" stroke-linejoin="round"/>
<path d="M28.5287 28.2754L28.6957 31.0115" stroke="#F4829B" stroke-width="4" stroke-linecap="round" stroke-linejoin="round"/>
<path d="M28.6096 29.6006L28.6956 31.0117" stroke="#C979F3" stroke-width="4" stroke-linecap="round" stroke-linejoin="round"/>
<g opacity="0.5">
<path d="M42.8935 26.8931C42.735 27.3138 40.8725 29.971 40.0171 30.9187C39.7528 31.2116 39.3695 31.3609 38.9904 31.2845C38.8523 31.2567 38.7101 31.2001 38.5812 31.0971C38.096 30.7093 37.9615 29.7906 38.4454 29.0199C38.4701 28.9789 38.5047 28.9212 38.5306 28.8781C38.6583 28.666 38.908 28.2497 39.3539 27.4983C40.0922 26.2536 41.1177 24.4062 41.877 24.3391C42.635 24.2729 42.8433 24.9034 42.9563 25.1925C43.1372 25.6501 43.0814 26.392 42.8935 26.8931Z" fill="#262840"/>
<path d="M31.7181 31.5122C31.7181 31.5122 31.2629 31.6174 30.7458 31.1172C30.3692 30.753 30.1159 30.4315 29.9799 30.4305C29.844 30.4292 29.2119 30.3801 29.1155 30.4109C29.0191 30.4418 28.3039 30.6226 28.1356 30.6653C27.9675 30.7081 28.0683 30.8977 28.3267 30.8927C28.5851 30.8876 29.0573 30.8029 29.115 30.8067C29.1726 30.8105 29.2467 30.8313 29.2467 30.8313C29.2467 30.8313 29.0652 30.9449 28.8841 31.1359C28.7029 31.3271 28.4592 31.8446 28.4592 31.8446C28.4478 31.9593 28.5373 32.3011 28.6233 32.44C28.7094 32.579 28.9708 32.6617 29.1335 32.754C29.2962 32.846 29.3401 32.6878 29.3401 32.6878C29.3401 32.6878 29.7134 33.0735 30.1881 33.1128C30.663 33.1521 31.2297 32.8681 31.532 32.8407C31.8344 32.8132 32.218 32.5213 32.1328 32.1158C32.0475 31.7103 31.7181 31.5122 31.7181 31.5122Z" fill="#262840"/>
<path d="M39.8007 31.5975C39.3543 31.8211 38.1759 32.3514 35.8706 32.5378C33.5642 32.723 31.5043 32.5281 31.3763 32.43C31.247 32.3319 31.0456 31.9992 31.2247 31.5785C31.4039 31.1567 31.876 31.0745 31.9944 31.0847C32.1141 31.095 34.0276 30.9978 35.3978 30.5916C36.768 30.1855 38.2268 29.9262 38.2268 29.9262C38.2268 29.9262 38.2347 29.9127 38.2523 29.8795C39.1976 29.5724 40.0893 29.9728 40.2606 30.5093C40.3743 30.8655 40.1726 31.2886 39.8007 31.5975Z" fill="#262840"/>
</g>
</g>
<mask id="mask8_402_827" style="mask-type:luminance" maskUnits="userSpaceOnUse" x="0" y="0" width="64" height="64">
<path d="M0 0H64V64H0V0Z" fill="white"/>
</mask>
<g mask="url(#mask8_402_827)">
<path d="M52.6438 35.4963C52.1331 38.1881 51.6966 40.519 51.6134 40.9581C51.6134 40.9581 51.6134 40.9595 51.6147 40.962C51.3618 42.3956 50.1705 43.1388 49.3631 42.909C48.8241 42.7556 48.4232 42.1591 48.2854 41.4676C48.1711 41.2681 48.0075 37.3181 48.32 33.762C48.576 30.8481 51.2639 29.6321 52.508 31.33C52.508 31.33 53.1533 32.8057 52.6438 35.4963Z" fill="#3A3680"/>
<path d="M49.198 38.2789C49.454 37.6389 50.222 37.1269 50.99 36.6149C49.9413 35.265 48.6402 35.6265 48.0889 37.0438C48.1141 38.885 48.236 41.0935 48.2928 41.5288C48.3298 41.8132 48.4624 42.1985 48.6589 42.6534C48.6681 42.6033 47.9364 40.8206 49.198 38.2789Z" fill="#363450"/>
<path d="M52.6337 51.0927C52.6337 51.0927 53.0264 52.1878 53.0264 52.2701C53.0264 52.3524 51.7344 52.9901 51.2489 53.1958C50.7635 53.4015 50.4137 53.4221 50.3314 53.6689C50.2491 53.9158 50.5371 54.1626 50.7017 54.2244C50.8663 54.2861 53.1497 54.2861 53.8491 54.3272C54.5486 54.3684 55.2484 54.1629 55.4541 53.9366C55.6598 53.7103 55.3509 52.7328 55.2891 52.5426C55.2274 52.3524 54.2587 50.0054 54.2587 50.0054L52.6337 51.0927Z" fill="#F4829B"/>
<path d="M55.4536 53.9364C55.2488 54.1629 54.5486 54.368 53.8497 54.327C53.1495 54.2861 50.866 54.2861 50.7022 54.2246C50.537 54.1632 50.2489 53.9161 50.3308 53.6691C50.414 53.4221 50.7635 53.4016 51.2486 53.1955C51.4009 53.1302 51.634 53.0227 51.8823 52.9037C51.8823 52.9037 52.2713 52.887 52.3955 52.8729C52.5183 52.8601 52.9306 52.8461 53.1495 52.599C53.3697 52.352 53.4374 52.2969 54.0825 52.119C54.5036 52.0025 54.802 51.8157 54.9582 51.6992C55.131 52.1318 55.2692 52.4787 55.2897 52.5427C55.3511 52.7334 55.6597 53.7098 55.4536 53.9364Z" fill="#3A3680"/>
<path d="M52.6335 51.0927C52.6335 51.0927 52.7166 51.3258 52.8162 51.6097C53.4818 51.6822 54.1916 51.6875 54.8444 51.4573C54.5529 50.7323 54.2585 50.0054 54.2585 50.0054L52.6335 51.0927Z" fill="#363450"/>
<path d="M54.656 50.5581C54.656 50.5581 54.5739 50.9971 53.724 51.2442C52.8728 51.4899 52.4888 51.2442 52.4888 51.2442C52.4888 51.2442 50.2949 45.863 49.6088 44.5728C48.924 43.2838 48.3749 42.16 48.293 41.529C48.2904 41.511 48.2878 41.4906 48.2853 41.4675C48.2639 40.6911 48.6775 39.9974 49.2906 39.7467C50.113 39.4103 51.2349 39.8949 51.6146 40.9619C52.1322 42.394 52.5922 43.5802 52.8178 44.4691C53.395 46.745 54.656 50.5581 54.656 50.5581Z" fill="#3A3680"/>
<path d="M51.3999 41.1361C51.3999 41.1361 50.8025 40.9441 50.4048 41.1361" stroke="#C979F3" stroke-linecap="round" stroke-linejoin="round"/>
<path d="M52.3086 50.8325C52.3086 50.8325 53.9522 51.0781 54.4756 50.0054" stroke="#C979F3" stroke-linecap="round" stroke-linejoin="round"/>
<path d="M42.453 42.7213C42.337 42.1194 42.7532 40.4258 43.1685 39.2914C43.5838 38.1569 44.2232 33.1782 46.1113 30.9091C46.9663 29.8817 48.8065 29.1407 50.0501 31.0211C50.533 31.7511 50.8501 32.6391 51.0331 33.4586C51.1705 34.0714 51.0954 34.4539 51.0956 34.895C51.0952 35.3822 50.5688 35.9092 50.4348 35.941C50.017 36.0414 49.7159 36.4065 49.3889 36.6392C49.0605 36.8712 47.9034 38.6281 47.4712 39.4232C47.062 40.1778 45.8495 42.5398 45.7298 42.7756C45.1336 43.9479 43.9557 44.3769 43.231 44.0081C42.6027 43.6882 42.4711 42.8481 42.453 42.7213Z" fill="#3A3680"/>
<path d="M50.8399 36.4929C51.2154 36.2094 51.437 35.8151 51.5823 35.3658C51.7204 34.9387 51.7213 34.4236 51.653 33.9052" stroke="#C979F3" stroke-linecap="round" stroke-linejoin="round"/>
<path d="M47.4955 39.748C47.9521 38.9875 49.1723 37.3107 49.5159 37.0938C49.8597 36.877 50.153 36.6075 50.3723 36.4927" stroke="#C979F3" stroke-linecap="round" stroke-linejoin="round"/>
<path d="M44.0112 36.4214C44.0112 36.4214 45.3414 35.7568 45.6128 35.3807C45.8843 35.0048 45.9892 34.3371 45.9892 34.3371" stroke="#C979F3" stroke-linecap="round" stroke-linejoin="round"/>
<path d="M42.2851 53.3657C42.2851 53.3657 42.3905 54.1591 42.3298 54.3402C42.3003 54.428 41.6969 54.6694 41.1923 54.8519C41.0516 54.9029 40.6325 55.0616 40.0835 55.2234C39.9517 55.2621 39.72 55.3675 39.6411 55.4014C39.4271 55.4932 39.5388 55.9117 39.7287 56.0086C40.066 56.1804 41.315 56.2029 42.1738 56.2682C43.0326 56.3334 43.5365 56.3885 43.8933 56.3177C44.25 56.2469 44.651 56.0423 44.6709 55.7861C44.6908 55.5299 44.3657 53.7318 44.2213 52.9259C44.0769 52.12 42.5282 52.9132 42.2851 53.3657Z" fill="#F4829B"/>
<path d="M44.6831 55.7911C44.6631 56.0445 44.261 56.2486 43.9042 56.3188C43.5461 56.389 43.0414 56.335 42.1804 56.2711C41.3195 56.2073 40.0678 56.1864 39.7294 56.0157C39.5387 55.9203 39.4257 55.5043 39.6399 55.4139C39.7199 55.3799 39.951 55.2749 40.0835 55.236C40.6341 55.0761 41.053 54.9175 41.1947 54.8676C41.2154 54.8595 41.2372 54.8526 41.2579 54.8444C41.2579 54.8444 41.4055 54.8697 41.5562 54.8739C41.7055 54.878 42.3563 54.8622 42.5362 54.7596C42.6087 54.7191 42.6854 54.6649 42.753 54.6155C42.8674 54.5298 43.0064 54.4836 43.151 54.4776C43.6855 54.4574 44.1985 54.2651 44.445 54.1568C44.5737 54.8898 44.6957 55.6338 44.6831 55.7911Z" fill="#3A3680"/>
<path d="M44.3972 53.8921C44.331 53.5134 44.266 53.1531 44.2197 52.8948C44.0752 52.0897 42.5259 52.8824 42.2828 53.3346C42.2828 53.3346 42.3064 53.5129 42.3249 53.7195C42.9967 54.0533 43.7032 54.0501 44.3972 53.8921Z" fill="#363450"/>
<path d="M44.2743 53.2857C44.2743 53.2857 44.1377 53.7101 43.1987 53.6684C42.2598 53.6267 42.1063 53.3574 42.1063 53.3574C42.101 52.7762 41.8079 49.4765 41.6057 47.3213C41.4419 45.5703 41.4229 43.2552 41.4963 42.1023C41.5285 41.5968 41.7908 41.1251 42.2168 40.8652C42.3666 40.7737 42.5381 40.7057 42.7284 40.688C43.5675 40.6104 44.5643 41.5311 44.7251 43.0181L44.7113 43.029L44.7068 43.0324C44.8808 43.9675 44.6237 46.5314 44.4796 48.4472C44.3355 50.3631 44.2743 53.2857 44.2743 53.2857Z" fill="#3A3680"/>
<path d="M42.1249 52.822C42.1249 52.822 43.431 53.5085 44.3879 52.7284" stroke="#C979F3" stroke-linecap="round" stroke-linejoin="round"/>
<path d="M44.7216 43.0191C44.5103 42.4855 43.426 42.1758 43.086 42.2361" stroke="#C979F3" stroke-linecap="round" stroke-linejoin="round"/>
<path d="M42.2866 21.1765C42.2866 21.1765 42.5895 21.4249 42.7639 22.1947C42.9381 22.9645 44.9426 22.1656 44.9281 21.846C44.9135 21.5265 44.6507 21.0222 44.5067 20.3231C44.3627 19.6239 42.2739 19.8387 42.2866 21.1765Z" fill="#F4829B"/>
<path d="M41.6542 20.4694C41.6542 20.4694 40.3988 19.2695 40.7158 18.2644C41.0328 17.2595 42.7689 16.3752 43.6923 16.8534C44.6158 17.3316 44.5899 18.5307 44.7495 19.014C44.909 19.4973 45.2298 19.7753 44.8968 20.9905C44.67 21.8178 43.6139 22.5134 41.6542 20.4694Z" fill="#F4829B"/>
<path d="M42.8603 21.246C42.6945 21.3648 42.4729 21.365 42.3087 21.2459C42.1118 21.1031 41.8178 20.8909 41.4367 20.6191C40.6886 20.0856 40.3823 19.7759 40.325 19.1109C40.2678 18.4459 39.932 17.8672 41.0926 17.1452C42.2531 16.4232 43.0214 16.0313 43.8938 16.1487C44.1919 16.1888 44.0243 16.3638 44.2147 16.5239C44.5816 16.8321 44.7443 17.2923 44.6867 17.6312C44.5992 18.1463 44.3732 18.116 44.3732 18.116C44.3732 18.116 44.5514 18.7658 44.1725 19.0322C43.9095 19.217 44.379 19.4942 44.379 19.4942C44.379 19.4942 44.5022 19.8953 44.5138 20.2662C44.5199 20.4664 44.376 20.639 44.1806 20.6783C43.8705 20.7405 43.3566 20.8905 42.8603 21.246Z" fill="#3A3680"/>
<path d="M44.3165 18.9434C44.3165 18.9434 44.1296 19.0335 44.1229 19.3013C44.1161 19.5692 44.3886 19.7777 44.5361 19.7589" fill="#F4829B"/>
<path d="M44.4344 19.1142C44.4344 19.1142 44.4289 18.7818 44.3779 18.8582C44.1639 19.1782 44.5073 19.7844 44.5619 19.7692" stroke="#3A3680" stroke-linecap="round" stroke-linejoin="round"/>
<path d="M50.5336 25.0815C50.4937 25.1179 50.4487 25.1453 50.4 25.1626C49.7975 25.3745 48.2549 25.2897 46.7448 24.7714C45.2348 24.2518 44.6372 21.3234 45.9547 21.3715C45.9547 21.3715 46.4244 21.4374 47.7275 22.2454L49.0293 23.0546C49.0293 23.0546 49.0292 23.0457 49.0307 23.028C50.1615 23.4505 50.8451 24.1332 50.7598 24.6768C50.7428 24.7843 50.6897 24.9259 50.5336 25.0815Z" fill="#3A3680"/>
<path d="M50.1836 18.8775C50.1836 18.8775 49.9435 18.0202 49.9237 17.7932C49.9038 17.5663 50.0655 16.8559 50.0378 16.5737C50.0102 16.2914 49.5102 15.0561 49.3981 14.9479C49.286 14.8399 49.1756 14.9861 49.5682 16.2364C49.5682 16.2364 48.7193 14.6975 48.5432 14.7091C48.3671 14.7207 48.4073 14.8934 48.4073 14.8934C48.4073 14.8934 48.271 14.9005 48.3514 15.2457C48.4317 15.5911 48.6135 16.1237 48.6135 16.1237C48.6135 16.1237 48.3693 15.5032 48.2418 15.4617C48.1143 15.4201 48.2648 15.9087 48.3343 16.1558C48.4038 16.403 48.4407 16.732 48.4005 16.8627C48.3048 17.1754 48.2776 17.7281 48.4641 18.0958C48.6504 18.4635 48.8091 18.549 48.8091 18.549C48.8091 18.549 49.0567 19.2628 49.1292 19.5533C49.2019 19.8439 50.2683 19.1899 50.1836 18.8775Z" fill="#F4829B"/>
<path d="M50.1879 11.843L45.4927 13.7237C45.3298 13.7889 45.2297 13.9474 45.2427 14.1195L45.509 17.6663C45.5221 17.8409 45.7005 17.9615 45.8723 17.9121L50.7301 16.5149C50.9497 16.4517 51.0885 16.2457 51.0612 16.0232L50.5763 12.0676C50.5542 11.8873 50.3591 11.7745 50.1879 11.843Z" fill="#C979F3"/>
<path d="M50.0009 11.7311L45.3057 13.6118C45.1428 13.677 45.0426 13.8355 45.0556 14.0076L45.3219 17.5544C45.335 17.7291 45.5134 17.8497 45.6852 17.8003L50.5431 16.403C50.7626 16.3398 50.9014 16.1338 50.8741 15.9113L50.3892 11.9557C50.3671 11.7753 50.172 11.6626 50.0009 11.7311Z" fill="#3A3680"/>
<path d="M45.631 13.8101L46.2467 13.6081" stroke="#C979F3" stroke-linecap="round" stroke-linejoin="round"/>
<path d="M45.6353 14.2489L49.2219 13.1764" stroke="#C979F3" stroke-linecap="round" stroke-linejoin="round"/>
<path d="M45.8063 14.8037L49.6952 13.4666C49.7874 13.4349 49.8892 13.496 49.9017 13.5904L50.1815 15.7041C50.1994 15.8394 50.1147 15.9646 49.9798 16.0026L45.9633 17.1356C45.8693 17.1622 45.7711 17.0962 45.764 17.0015L45.6192 15.0818C45.6097 14.9578 45.6855 14.8452 45.8063 14.8037Z" stroke="#C979F3" stroke-linecap="round" stroke-linejoin="round"/>
<path d="M46.7975 15.0859C46.8397 15.2895 46.7145 15.5237 46.5178 15.609C46.321 15.6943 46.1273 15.5983 46.0851 15.3947C46.0427 15.1911 46.1679 14.9569 46.3646 14.8716C46.5614 14.7863 46.7552 14.8822 46.7975 15.0859Z" fill="#F8E880"/>
<path d="M48.0649 14.7273C48.1072 14.9309 47.982 15.1651 47.7852 15.2504C47.5885 15.3357 47.3948 15.2397 47.3525 15.0361C47.3102 14.8325 47.4354 14.5983 47.6321 14.513C47.8288 14.4277 48.0227 14.5236 48.0649 14.7273Z" fill="#F8E880"/>
<path d="M46.4294 16.0029L46.4445 16.5298" stroke="#00CE79" stroke-linecap="round" stroke-linejoin="round"/>
<path d="M46.319 16.1775L46.4397 16.0071L46.5846 16.1103" stroke="#00CE79" stroke-linecap="round" stroke-linejoin="round"/>
<path d="M47.5691 16.1308L47.7182 16.2259L47.8757 16.043" stroke="#F4829B" stroke-linecap="round" stroke-linejoin="round"/>
<path d="M47.6991 15.6633L47.7283 16.229" stroke="#F4829B" stroke-linecap="round" stroke-linejoin="round"/>
<path d="M49.0305 14.1733L49.6905 13.9872" stroke="#FFFEFF" stroke-linecap="round" stroke-linejoin="round"/>
<path d="M49.0358 14.5442L49.6957 14.358" stroke="#FFFEFF" stroke-linecap="round" stroke-linejoin="round"/>
<path d="M49.6545 17.3074C49.6395 17.2705 49.493 17.0492 49.3492 16.8139C49.2591 16.6664 49.1111 16.2372 48.9846 16.1873C48.858 16.1374 48.8356 16.4272 48.8928 16.6717C48.9499 16.9162 48.9856 17.0387 48.9334 17.2031C48.8811 17.3676 48.5951 17.7838 48.9956 18.2537" fill="#F4829B"/>
<path d="M49.6545 17.3074C49.6395 17.2705 49.493 17.0492 49.3492 16.8139C49.2591 16.6664 49.1111 16.2372 48.9846 16.1873C48.858 16.1374 48.8356 16.4272 48.8928 16.6717C48.9499 16.9162 48.9856 17.0387 48.9334 17.2031C48.8811 17.3676 48.5951 17.7838 48.9956 18.2537" stroke="#3A3680" stroke-linecap="round" stroke-linejoin="round"/>
<path d="M50.4605 21.9745C50.6469 22.9056 51.0157 24.3485 50.7021 24.8472C50.4086 25.1139 50.1799 25.1228 50.0837 25.1163C49.5637 25.0808 49.0607 24.3275 49.0121 23.2186C49.0089 23.1918 49.0041 23.1515 48.9986 23.1029C48.9669 22.8272 48.9002 22.1935 48.89 21.595C48.8761 20.8004 48.712 19.2785 48.712 19.2785C48.712 19.2785 48.9089 19.0734 49.3094 18.967C49.7099 18.8605 49.9767 19.025 49.9767 19.025C49.9767 19.025 50.2562 20.9614 50.4605 21.9745Z" fill="#3A3680"/>
<path d="M48.8512 23.2253C48.8512 23.2253 49.2989 23.3475 49.4523 23.4828" stroke="#C979F3" stroke-linecap="round" stroke-linejoin="round"/>
<path d="M48.7999 19.5107C48.7999 19.5107 49.4241 18.9927 50.2652 19.3985" stroke="#C979F3" stroke-linecap="round" stroke-linejoin="round"/>
<path d="M50.7539 23.96C50.7539 23.96 49.8587 24.228 50.0179 25.2772" stroke="#C979F3" stroke-linecap="round" stroke-linejoin="round"/>
<path d="M40.2907 23.6298C40.2907 23.6298 40.1673 22.9304 41.4016 22.2309C42.6357 21.5315 43.0676 21.2847 43.9728 21.0789C44.8779 20.8732 45.8654 21.0995 46.2151 21.3669C46.5648 21.6344 47.2644 22.5189 48.046 24.1441C48.8277 25.7692 49.8153 26.9213 50.6997 28.2586C51.5844 29.5957 52.9216 31.6323 52.5924 32.2906C52.5924 32.2906 51.4404 31.4216 49.1364 32C46.8324 32.5786 44.9602 33.895 44.6928 33.9363C44.4254 33.9773 44.4256 33.2351 44.3844 32.6598C44.3433 32.0847 44.3433 31.406 43.6437 30.1923C42.9444 28.9786 42.0393 27.8675 41.5044 26.3864C40.9696 24.9052 40.2907 23.6298 40.2907 23.6298Z" fill="#C979F3"/>
<path d="M48.0462 24.144C48.8279 25.7691 49.8153 26.9212 50.6999 28.2584C51.5845 29.5955 52.9215 31.6321 52.5924 32.2904" stroke="#3A3680" stroke-linecap="round" stroke-linejoin="round"/>
<path d="M40.7623 24.5933C40.9332 25.0665 41.884 27.2946 42.1117 27.7076C42.2408 26.6765 42.7105 24.5933 42.1596 23.3961C41.8442 22.8778 41.088 22.5279 40.7795 23.2493C40.658 23.5333 40.5017 24.2076 40.7623 24.5933Z" fill="#363450"/>
<path d="M43.8836 30.6411C43.8836 30.6411 44.5666 31.4626 44.9281 32" stroke="#3A3680" stroke-linecap="round" stroke-linejoin="round"/>
<path d="M42.2535 25.6131C42.095 26.0338 40.2325 28.691 39.3771 29.6387C39.1128 29.9316 38.7295 30.0809 38.3504 30.0045C38.2123 29.9767 38.0701 29.9201 37.9412 29.8171C37.456 29.4293 37.3215 28.5106 37.8053 27.7399C37.8301 27.6989 37.8647 27.6413 37.8905 27.5981C38.0183 27.386 38.268 26.9697 38.7139 26.2183C39.4522 24.9736 40.4777 23.1262 41.237 23.0591C41.995 22.9929 42.2033 23.6234 42.3163 23.9125C42.4972 24.3701 42.4414 25.112 42.2535 25.6131Z" fill="#3A3680"/>
<path d="M41.0567 23.0578C40.3092 23.1253 38.5819 26.2488 38.5819 26.2488L37.6623 27.8362" stroke="#C979F3" stroke-linecap="round" stroke-linejoin="round"/>
<path d="M31.0773 30.2311C31.0773 30.2311 30.6224 30.3366 30.105 29.837C29.7282 29.4733 29.4747 29.1522 29.3388 29.1512C29.2029 29.1501 28.5711 29.1014 28.4747 29.1323C28.3784 29.1632 27.6637 29.3445 27.4955 29.3873C27.3275 29.4302 27.4285 29.6197 27.6868 29.6145C27.945 29.6092 28.417 29.5242 28.4746 29.5279C28.5322 29.5317 28.6062 29.5524 28.6062 29.5524C28.6062 29.5524 28.4249 29.666 28.2441 29.8572C28.0632 30.0483 27.8202 30.5658 27.8202 30.5658C27.8089 30.6804 27.8987 31.0221 27.9847 31.1608C28.0709 31.2997 28.3323 31.3822 28.495 31.4742C28.6578 31.5662 28.7015 31.408 28.7015 31.408C28.7015 31.408 29.075 31.7932 29.5496 31.8321C30.0243 31.871 30.5904 31.5867 30.8925 31.5591C31.1948 31.5314 31.578 31.2393 31.4923 30.8341C31.4067 30.4288 31.0773 30.2311 31.0773 30.2311Z" fill="#F4829B"/>
<path d="M28.5625 29.6449C28.5625 29.6449 28.7007 29.5427 28.7626 29.5664" stroke="#3A3680" stroke-linecap="round" stroke-linejoin="round"/>
<path d="M28.8395 31.4388C28.8395 31.4388 28.6551 31.1876 28.4969 31.0854" stroke="#3A3680" stroke-linecap="round" stroke-linejoin="round"/>
<path d="M28.1302 31.1511C28.2118 31.2898 28.4647 31.3685 28.6213 31.4585C28.7781 31.5486 28.8227 31.3878 28.8227 31.3878C28.8227 31.3878 29.1799 31.7705 29.6402 31.8013C30.1006 31.832 30.6544 31.5343 30.9482 31.5009" stroke="#3A3680" stroke-linecap="round" stroke-linejoin="round"/>
<path d="M27.4979 29.4809C27.3254 29.5193 27.4326 29.7078 27.6984 29.7085C27.9642 29.7092 28.4489 29.6365 28.5083 29.6414C28.5675 29.6463 28.644 29.6684 28.644 29.6684C28.644 29.6684 28.4593 29.776 28.276 29.9598C28.0929 30.1436 27.8509 30.6468 27.8509 30.6468C27.8409 30.7592 27.9387 31.0972 28.0295 31.2356" stroke="#3A3680" stroke-linecap="round" stroke-linejoin="round"/>
<path d="M39.1611 30.3168C38.7148 30.5406 37.5365 31.0715 35.231 31.2584C32.9244 31.4442 30.8643 31.2497 30.7362 31.1517C30.6069 31.0535 30.4053 30.7206 30.5843 30.2997C30.7634 29.8777 31.2355 29.7954 31.3539 29.8055C31.4736 29.8158 33.3872 29.7181 34.7574 29.3115C36.1276 28.9048 37.5865 28.6451 37.5865 28.6451C37.5865 28.6451 37.5944 28.6316 37.612 28.5983C38.5573 28.2909 39.4492 28.6913 39.6207 29.228C39.7346 29.5843 39.533 30.0076 39.1611 30.3168Z" fill="#3A3680"/>
<path d="M37.8701 28.6343C37.7684 28.5801 37.5365 28.6093 37.5365 28.6093C37.5365 28.6093 36.0687 28.8838 34.6928 29.3046C33.317 29.7255 31.3884 29.8431 31.2684 29.8341C31.1482 29.8251 30.674 29.9119 30.4984 30.3352" stroke="#C979F3" stroke-linecap="round" stroke-linejoin="round"/>
<path d="M40.0135 29.2123C40.0135 29.2123 39.6493 28.8931 39.0998 29.0728C38.5503 29.2524 38.0002 29.7098 38.1426 30.4932" stroke="#C979F3" stroke-linecap="round" stroke-linejoin="round"/>
<path d="M31.6403 30.1873C31.6403 30.1873 31.1063 30.2307 30.9977 30.795C30.863 31.4955 31.1767 31.7589 31.1767 31.7589" stroke="#C979F3" stroke-linecap="round" stroke-linejoin="round"/>
</g>
<path d="M27.4294 44.7684C27.3254 44.7684 27.2278 44.7048 27.1894 44.6016C27.1401 44.4691 27.2074 44.3217 27.3399 44.2724C28.4605 43.8554 30.6826 43.5922 32.9874 43.6004C34.756 43.6072 36.2844 43.7724 37.1807 44.0534C37.3154 44.0956 37.3906 44.2394 37.3482 44.3743C37.306 44.5092 37.1624 44.5843 37.0273 44.5418C36.1906 44.2795 34.6797 44.1189 32.9853 44.1124C32.95 44.1122 32.9145 44.1121 32.8792 44.1121C30.6967 44.1121 28.5529 44.3672 27.5184 44.7521C27.489 44.7631 27.4589 44.7684 27.4294 44.7684Z" fill="#B8C7F8"/>
<path d="M31.7093 46.2312C31.6746 46.2312 31.6403 46.231 31.6057 46.2309C29.6812 46.2235 27.3877 46.0127 26.7224 45.4426C26.615 45.3505 26.6026 45.189 26.6945 45.0817C26.7865 44.9743 26.9479 44.9618 27.0554 45.0538C27.4329 45.3771 29.1178 45.7094 31.6078 45.7189C34.6183 45.7274 36.977 45.2899 37.512 44.8572C37.6218 44.7681 37.7833 44.7853 37.872 44.8951C37.961 45.0052 37.9439 45.1663 37.8341 45.2552C37.0378 45.8991 34.1706 46.2312 31.7093 46.2312Z" fill="#B8C7F8"/>
<path d="M27.33 39.7889L25.346 52.7347C25.3233 52.8828 25.4379 53.0163 25.5877 53.0163C25.7054 53.0163 25.8064 52.9324 25.8281 52.8167L28.2333 39.9324L27.33 39.7889Z" fill="#B8C7F8"/>
<path d="M27.33 39.7884L27.1981 40.6485C27.5031 40.7725 27.7898 40.7986 28.0751 40.7797L28.2333 39.9319L27.33 39.7884Z" fill="#3A3680"/>
<path d="M37.2631 39.7889L39.2471 52.7347C39.2698 52.8828 39.1552 53.0163 39.0054 53.0163C38.8877 53.0163 38.7867 52.9324 38.7651 52.8167L36.3598 39.9324L37.2631 39.7889Z" fill="#B8C7F8"/>
<path d="M37.2631 39.7884L36.3598 39.9319L36.4899 40.6291C36.7795 40.5953 37.0693 40.5331 37.359 40.414L37.2631 39.7884Z" fill="#3A3680"/>
<path d="M31.4516 40.1898L31.7731 50.935C31.7774 51.0763 31.8932 51.1889 32.0345 51.1889C32.1789 51.1889 32.2961 51.0717 32.2961 50.9274V39.5864L31.4516 40.1898Z" fill="#B8C7F8"/>
<path d="M32.2961 40.825V39.5864L31.4516 40.1898L31.4716 40.8553C31.7464 40.8646 32.0213 40.8509 32.2961 40.825Z" fill="#3A3680"/>
<path d="M39.4981 38.9866C39.5014 38.9619 39.5017 38.9372 39.4981 38.9129V38.2929L38.6 38.3068C37.5237 37.9584 35.5676 37.727 33.1946 37.718C30.3051 37.707 27.6023 38.0285 26.1657 38.5004L25.0941 38.5171V39.2728L25.0946 39.273C25.1694 39.9405 27.808 40.4627 31.3984 40.4764C35.3458 40.4915 38.9479 39.8862 39.4439 39.1245C39.474 39.0784 39.4913 39.0328 39.4977 38.9878H39.4981V38.9866Z" fill="#B8C7F8"/>
<path d="M39.4439 38.4296C38.9478 39.1913 35.3458 39.7966 31.3984 39.7815C27.4509 39.7664 24.653 39.1368 25.1492 38.375C25.6452 37.6133 29.2473 37.008 33.1947 37.0231C37.1421 37.0381 39.9401 37.6678 39.4439 38.4296Z" fill="#FFFEFF"/>
<path d="M39.4439 38.4296C38.9478 39.1913 35.3458 39.7966 31.3984 39.7815C27.4509 39.7664 24.653 39.1368 25.1492 38.375C25.6452 37.6133 29.2473 37.008 33.1947 37.0231C37.1421 37.0381 39.9401 37.6678 39.4439 38.4296Z" stroke="#B8C7F8" stroke-linecap="round" stroke-linejoin="round"/>
<path d="M33.8067 39.031L34.6536 39.0911C34.8876 39.1077 35.1215 39.0563 35.3269 38.9428L37.5333 37.7258C37.5843 37.6977 37.6163 37.6439 37.6163 37.5854C37.6163 37.5002 37.5494 37.4298 37.4641 37.4253L29.7784 37.0218L33.8067 39.031Z" fill="#B8C7F8"/>
<path d="M37.6164 37.5855C37.6164 37.5003 37.5494 37.4297 37.4643 37.4253" stroke="#3A3680" stroke-linecap="round" stroke-linejoin="round"/>
<path d="M34.6537 39.0911C34.8877 39.1076 35.1215 39.0563 35.3269 38.943L37.5332 37.726C37.5844 37.6977 37.6162 37.6439 37.6162 37.5855" stroke="#3A3680" stroke-linecap="round" stroke-linejoin="round"/>
<path d="M35.0121 38.7293L37.3899 37.5054" stroke="#3A3680" stroke-linecap="round" stroke-linejoin="round"/>
<path d="M26.8886 38.3464L26.0457 33.9336C26.0192 33.7949 26.129 33.6678 26.2701 33.674L33.8025 34.0019C34.0242 34.0116 34.209 34.1743 34.2469 34.393L35.0087 38.7908C35.0376 38.9583 34.9018 39.1086 34.7322 39.0966L27.1272 38.5585C27.0088 38.55 26.9109 38.463 26.8886 38.3464Z" fill="#FFFEFF"/>
<path d="M26.8882 38.3462L26.0453 33.9336C26.0188 33.7949 26.1286 33.6678 26.2697 33.674L33.8021 34.0019C34.0238 34.0116 34.2087 34.1743 34.2466 34.393" stroke="#B8C7F8" stroke-linecap="round" stroke-linejoin="round"/>
<path d="M34.2466 34.3929L35.0084 38.7908C35.0373 38.9583 34.9015 39.1087 34.7319 39.0967L27.1269 38.5584C27.0084 38.5501 26.9105 38.463 26.8882 38.3464" stroke="#3A3680" stroke-linecap="round" stroke-linejoin="round"/>
<path d="M30.2097 36.3476C30.2253 36.5903 30.0458 36.7698 29.8083 36.748C29.5697 36.7263 29.3642 36.5115 29.3477 36.2678C29.3311 36.0281 29.5064 35.8507 29.7398 35.8684C29.7615 36.107 29.9649 36.3155 30.2003 36.3373H30.2086C30.2097 36.3403 30.2097 36.3446 30.2097 36.3476Z" fill="#B8C7F8"/>
<mask id="mask9_402_827" style="mask-type:luminance" maskUnits="userSpaceOnUse" x="0" y="0" width="64" height="64">
<path d="M0 0H64V64H0V0Z" fill="white"/>
</mask>
<g mask="url(#mask9_402_827)">
<path d="M30.9105 20.0837L30.9051 20.0845L30.3501 19.6512L30.5396 19.4951C30.3642 18.7047 30.8568 17.4646 31.7469 16.4236C32.6048 15.4202 33.7174 14.7351 34.5408 14.7078L34.7064 14.4887L35.2715 14.9307L35.2703 14.9359C35.9398 15.509 35.6383 17.0507 34.3644 18.5407C33.1056 20.0131 31.6224 20.5871 30.9105 20.0837Z" fill="#FEA374"/>
<path d="M33.8652 18.0756C35.2699 16.4305 35.4957 14.7185 34.5349 14.3202C33.7184 13.9816 32.294 14.7344 31.2489 15.9581C30.2037 17.1819 29.7037 18.6829 30.1948 19.4028C30.7726 20.2496 32.4604 19.7207 33.8652 18.0756Z" fill="#F8E880"/>
<path d="M33.3924 17.6626C34.5356 16.3271 34.8038 14.9534 34.0913 14.6384C33.4691 14.3633 32.2957 15.0104 31.4024 16.0538C30.5091 17.0974 30.0676 18.3365 30.4593 18.8809C30.9079 19.5045 32.2491 18.998 33.3924 17.6626Z" stroke="#FEA374" stroke-linecap="round" stroke-linejoin="round"/>
<path d="M33.4294 15.9885C33.4444 15.8615 33.4206 15.758 33.36 15.6775L33.6673 15.2966L33.5458 15.2373L33.2632 15.5872C33.2344 15.567 33.1963 15.543 33.1493 15.5158L33.4228 15.177L33.3075 15.1207L33.0384 15.4537L32.8077 15.3288C32.7913 15.3199 32.7698 15.3319 32.7434 15.3647L32.6135 15.5253C32.587 15.5581 32.5819 15.5794 32.5979 15.5888L32.6841 15.6392L31.2914 17.3644L31.2207 17.2978C31.2072 17.2851 31.1872 17.2952 31.1607 17.328L31.0256 17.4954C30.9973 17.5303 30.9896 17.5544 31.0028 17.5676C31.0589 17.6361 31.1157 17.701 31.1733 17.7643L30.9016 18.1005L30.9868 18.1947L31.2597 17.8566C31.2732 17.8706 31.2868 17.8861 31.3004 17.8999C31.3188 17.9186 31.3385 17.9326 31.3583 17.9471L31.0774 18.2949L31.167 18.3938L31.4784 18.0082C31.5391 18.0252 31.6044 18.0267 31.6745 18.0109C31.8223 17.9775 31.972 17.8679 32.1217 17.6825C32.2306 17.5476 32.3057 17.4139 32.3468 17.2823C32.3874 17.152 32.3992 17.0439 32.3825 16.9583C32.4928 16.9968 32.6159 16.9804 32.7512 16.9078C32.8882 16.8345 33.0209 16.7186 33.1484 16.5608C33.315 16.3542 33.4087 16.1627 33.4294 15.9885Z" fill="#3A3680"/>
<path d="M31.4073 17.5898L31.34 17.5255L31.8957 16.8155L31.9544 16.8621C32.1106 16.9861 32.0951 17.173 31.9028 17.4186C31.7945 17.5569 31.7008 17.6358 31.6221 17.655C31.5443 17.6741 31.4724 17.6519 31.4073 17.5898Z" fill="#F8E880"/>
<path d="M33.0186 16.4265C32.8045 16.6971 32.6071 16.766 32.4322 16.6375L32.3168 16.5527L32.9625 15.7367L33.04 15.7822C33.1432 15.8425 33.1989 15.9233 33.2051 16.0245C33.2115 16.1268 33.1494 16.2613 33.0186 16.4265Z" fill="#F8E880"/>
<path d="M19.9941 42.2893L19.9989 42.2894L20.3477 41.8157L20.1366 41.6982C20.0495 40.9462 19.2522 39.8786 18.1837 39.0617C17.1664 38.2839 16.0454 37.8423 15.3666 37.9485L15.1685 37.7789L14.8419 38.2617L14.8444 38.2662C14.4746 38.8778 15.1632 40.2026 16.6326 41.3557C18.1096 42.5145 19.5347 42.8442 19.9941 42.2893Z" fill="#FEA374"/>
<path d="M16.9428 40.9265C15.3145 39.6557 14.635 38.1669 15.2932 37.6602C15.8588 37.2247 17.2586 37.6718 18.5037 38.6185C19.7667 39.5788 20.6556 40.889 20.4463 41.6228C20.2017 42.4806 18.6022 42.2217 16.9428 40.9265Z" fill="#F8E880"/>
<path d="M17.2262 40.5109C15.8948 39.4761 15.2756 38.2879 15.7618 37.8939C16.1898 37.5471 17.3528 37.9437 18.415 38.7531C19.4904 39.5723 20.2457 40.6483 20.0714 41.206C19.8728 41.8416 18.5784 41.5619 17.2262 40.5109Z" stroke="#FEA374" stroke-linecap="round" stroke-linejoin="round"/>
<path d="M17.1031 39.5152C17.2622 39.6381 17.4119 39.7216 17.5512 39.7656C17.6891 39.809 17.798 39.8027 17.8778 39.7479C17.8926 39.83 17.9389 39.9278 18.0172 40.0414C18.0964 40.156 18.205 40.2669 18.3427 40.3733C18.5323 40.5197 18.6968 40.596 18.834 40.6021C18.8992 40.6049 18.9542 40.5924 19.0004 40.5663L19.3989 40.8732L19.442 40.7655L19.0824 40.4888C19.0944 40.472 19.1065 40.4557 19.1159 40.4352C19.1228 40.42 19.1292 40.403 19.1359 40.3877L19.4857 40.6566L19.5268 40.5542L19.1786 40.2867C19.2063 40.2177 19.2329 40.1474 19.2578 40.0737C19.2645 40.0591 19.2497 40.038 19.2135 40.0102L19.0406 39.8778C19.0067 39.8519 18.9862 39.8458 18.9789 39.86L18.941 39.9346L17.1806 38.5842L17.2357 38.5219C17.2459 38.5102 17.2344 38.4918 17.2014 38.4663L17.039 38.3419C17.0059 38.3166 16.984 38.3095 16.9732 38.3207L16.8233 38.4777L16.4888 38.2209L16.4124 38.2938L16.752 38.555C16.7222 38.5884 16.6987 38.6172 16.6814 38.6411L16.331 38.3713L16.2507 38.4478L16.6315 38.7412C16.6084 38.8261 16.6233 38.9252 16.6781 39.0391C16.7535 39.1953 16.8953 39.3546 17.1031 39.5152Z" fill="#3A3680"/>
<path d="M18.68 40.2922C18.606 40.2888 18.4986 40.2333 18.3589 40.1258C18.1114 39.9355 18.0347 39.7669 18.1258 39.624L18.16 39.5704L18.8785 40.1211L18.8424 40.1928C18.8076 40.2621 18.7533 40.2956 18.68 40.2922Z" fill="#F8E880"/>
<path d="M16.9474 39.0177C16.9185 38.9242 16.9379 38.84 17.0038 38.7656L17.0535 38.7095L17.874 39.3378L17.8049 39.4369C17.7005 39.5869 17.5106 39.5597 17.2392 39.3509C17.0739 39.2238 16.9766 39.1124 16.9474 39.0177Z" fill="#F8E880"/>
<path d="M55.1983 23.9611L55.1951 23.9589L54.7054 24.0596L54.7766 24.2205C54.4162 24.6715 54.3387 25.6224 54.5752 26.5707C54.8026 27.4825 55.2903 28.2724 55.8019 28.5533L55.8375 28.7448L56.3343 28.6467L56.3353 28.643C56.9408 28.4951 57.24 27.4196 56.9051 26.0598C56.5732 24.7113 55.811 23.8655 55.1983 23.9611Z" fill="#FEA374"/>
<path d="M56.4496 26.1555C56.8195 27.6542 56.4202 28.8112 55.6869 28.7548C55.0647 28.707 54.401 27.7758 54.1235 26.6659C53.8452 25.5526 53.9983 24.433 54.5364 24.1285C55.1712 23.7693 56.0782 24.651 56.4496 26.1555Z" fill="#F8E880"/>
<path d="M56.0225 26.2508C56.3238 27.4682 56.0587 28.4257 55.5091 28.3967C55.03 28.3716 54.4926 27.5863 54.2557 26.6382C54.0182 25.6878 54.1277 24.7544 54.5472 24.5307C55.0287 24.2741 55.7204 25.0294 56.0225 26.2508Z" stroke="#FEA374" stroke-linecap="round" stroke-linejoin="round"/>
<path d="M54.5942 26.5125C54.6315 26.4817 54.6755 26.4839 54.7197 26.5122C54.7793 26.5505 54.8314 26.4925 54.835 26.3825L54.8349 26.3823C54.8384 26.2702 54.7898 26.1542 54.7289 26.1198C54.6482 26.0743 54.5774 25.9475 54.554 25.7816C54.5338 25.6376 54.5585 25.4901 54.6177 25.4107C54.7214 25.2714 54.8815 25.3643 54.9484 25.6062C54.9887 25.7516 54.9815 25.9054 54.9383 26.0109C54.9022 26.0989 54.9163 26.2353 54.9747 26.3265C55.0344 26.4193 55.1191 26.4329 55.1628 26.349C55.1974 26.2827 55.2507 26.2384 55.3212 26.2315C55.4499 26.2187 55.6053 26.3492 55.696 26.5592C55.855 26.9284 55.7481 27.2817 55.5075 27.237C55.3748 27.2123 55.2381 27.0556 55.1676 26.8605C55.1588 26.836 55.1512 26.8117 55.1447 26.7877C55.11 26.6601 55.0281 26.5778 54.9654 26.5971C54.9052 26.6157 54.8791 26.723 54.9081 26.8417C54.9135 26.864 54.9183 26.8869 54.9221 26.9103C54.9526 27.0947 54.9171 27.2509 54.8385 27.2862C54.7193 27.3399 54.5684 27.1192 54.5299 26.8582C54.5072 26.7032 54.5325 26.5633 54.5942 26.5125Z" fill="#3A3680"/>
<path d="M43.0736 35.3435L43.0778 35.3413L43.2622 34.7467L43.0477 34.7235C42.7799 34.0491 41.8056 33.3674 40.6436 33.0288C39.5237 32.7026 38.3787 32.7382 37.7709 33.1216L37.5419 33.0398L37.3545 33.6459L37.3581 33.6492C37.1607 34.4042 38.1478 35.404 39.8107 35.8885C41.4539 36.3673 42.811 36.0673 43.0736 35.3435Z" fill="#FEA374"/>
<path d="M39.9859 35.337C38.151 34.8023 37.1338 33.6393 37.6288 32.8713C38.0495 32.2187 39.4537 32.0794 40.8187 32.4772C42.1839 32.8749 43.2938 33.7463 43.2982 34.523C43.3034 35.4367 41.8208 35.8716 39.9859 35.337Z" fill="#F8E880"/>
<path d="M40.1403 34.8139C38.6488 34.3793 37.7697 33.4875 38.1265 32.9037C38.4381 32.3939 39.6079 32.3011 40.7732 32.6406C41.9386 32.9803 42.8756 33.6869 42.8648 34.2842C42.8523 34.9684 41.6318 35.2484 40.1403 34.8139Z" stroke="#FEA374" stroke-linecap="round" stroke-linejoin="round"/>
<path d="M39.9936 33.4151L40.5515 33.5203L40.725 33.6967L41.0783 33.7688L40.8842 33.583L41.7752 33.751L41.4526 33.2892L40.3728 33.0935L40.1987 32.9269L39.9151 32.873L40.0796 33.0403L39.4563 32.9272L39.7009 34.1676L40.261 34.2822L39.9936 33.4151Z" fill="#3A3680"/>
<path d="M13.7713 32.8072C13.1535 32.1251 11.9188 31.8736 10.7205 32.1879C9.47125 32.5154 8.49005 33.397 8.3486 34.3373L8.22406 34.3725L8.36444 34.8856C8.37651 34.9411 8.39101 34.9956 8.40903 35.0487L8.40997 35.0522L8.41043 35.0524C8.75705 36.059 10.174 36.6172 11.7803 36.196C13.3821 35.776 14.3383 34.6009 14.1492 33.5571C14.1492 33.5567 14.1493 33.5561 14.1493 33.5561L14.1483 33.5524C14.1338 33.4739 14.1134 33.3961 14.0857 33.3195L13.9797 32.925C13.9554 32.8347 13.8616 32.7818 13.7713 32.8072Z" fill="#FEA374"/>
<path d="M10.5655 31.7014C11.9784 31.3311 13.445 31.745 13.887 32.7274C14.3888 33.8432 13.4053 35.2437 11.625 35.7104C9.84461 36.1772 8.29632 35.4403 8.18155 34.2231C8.08051 33.1513 9.15254 32.0718 10.5655 31.7014Z" fill="#F8E880"/>
<path d="M10.6289 31.9665C11.8305 31.6514 13.0563 31.9891 13.3971 32.7911C13.7759 33.683 12.9345 34.7927 11.4773 35.1747C10.0201 35.5568 8.73886 35.0037 8.6275 34.0416C8.52735 33.1766 9.42729 32.2815 10.6289 31.9665Z" stroke="#FEA374" stroke-linecap="round" stroke-linejoin="round"/>
<path d="M10.6671 32.6585L9.03748 34.0271L11.162 34.2619L12.7985 32.6822L10.6671 32.6585Z" fill="#3A3680"/>
<path d="M10.709 33.3537L10.7281 32.889L11.0003 33.2495L10.709 33.3537Z" fill="#F8E880"/>
<path d="M10.5658 33.4422L9.50897 33.822L10.5954 32.8828L10.5658 33.4422Z" fill="#F8E880"/>
<path d="M10.6356 33.5713L10.9947 34.0982L9.52991 33.9739L10.6356 33.5713Z" fill="#F8E880"/>
<path d="M10.7709 33.4885L11.0679 33.3827L11.0694 33.926L10.7709 33.4885Z" fill="#F8E880"/>
<path d="M11.1324 33.166L10.7925 32.7496L12.249 32.7591L11.1324 33.166Z" fill="#F8E880"/>
<path d="M11.2314 33.9573L11.215 33.292L12.3256 32.894L11.2314 33.9573Z" fill="#F8E880"/>
<mask id="mask10_402_827" style="mask-type:luminance" maskUnits="userSpaceOnUse" x="11" y="33" width="13" height="14">
<path d="M11.0789 33.4533H23.8789V46.2533H11.0789V33.4533Z" fill="white"/>
</mask>
<g mask="url(#mask10_402_827)">
<g opacity="0.7">
<g opacity="0.792134">
<path d="M21.6154 34.5901L12.1434 44.0621" stroke="white" stroke-width="2"/>
<path d="M22.3194 35.2302L12.8474 44.7022" stroke="white" stroke-width="6"/>
</g>
</g>
</g>
<mask id="mask11_402_827" style="mask-type:luminance" maskUnits="userSpaceOnUse" x="26" y="10" width="14" height="14">
<path d="M26.7338 10.5895H39.5338V23.3895H26.7338V10.5895Z" fill="white"/>
</mask>
<g mask="url(#mask11_402_827)">
<g opacity="0.8">
<g opacity="0.762308">
<path d="M36.0246 10.4929L26.5526 19.9649" stroke="white" stroke-width="2"/>
<path d="M36.7286 11.1329L27.2566 20.6049" stroke="white" stroke-width="6"/>
</g>
</g>
</g>
<mask id="mask12_402_827" style="mask-type:luminance" maskUnits="userSpaceOnUse" x="4" y="27" width="14" height="14">
<path d="M4.96075 27.3757H17.7608V40.1757H4.96075V27.3757Z" fill="white"/>
</mask>
<g mask="url(#mask12_402_827)">
<g opacity="0.8">
<g opacity="0.75122">
<path d="M19.0106 31.9916L9.53864 41.4636" stroke="white" stroke-width="2"/>
<path d="M19.7146 32.6316L10.2426 42.1036" stroke="white" stroke-width="6"/>
</g>
</g>
</g>
<mask id="mask13_402_827" style="mask-type:luminance" maskUnits="userSpaceOnUse" x="33" y="27" width="14" height="14">
<path d="M33.3157 27.3234H46.1157V40.1234H33.3157V27.3234Z" fill="white"/>
</mask>
<g mask="url(#mask13_402_827)">
<g opacity="0.6">
<g opacity="0.786069">
<path d="M46.2782 30.8625L36.8062 40.3345" stroke="white" stroke-width="2"/>
<path d="M46.9821 31.5025L37.5101 40.9745" stroke="white" stroke-width="6"/>
</g>
</g>
</g>
<mask id="mask14_402_827" style="mask-type:luminance" maskUnits="userSpaceOnUse" x="48" y="19" width="14" height="14">
<path d="M48.9641 19.7697H61.7641V32.5697H48.9641V19.7697Z" fill="white"/>
</mask>
<g mask="url(#mask14_402_827)">
<g opacity="0.8">
<g opacity="0.799568">
<path d="M60.7421 22.136L51.2701 31.608" stroke="white" stroke-width="2"/>
<path d="M61.4461 22.776L51.9741 32.248" stroke="white" stroke-width="6"/>
</g>
</g>
</g>
<mask id="mask15_402_827" style="mask-type:luminance" maskUnits="userSpaceOnUse" x="38" y="34" width="5" height="5">
<path d="M38.912 34.8096H42.752V38.6496H38.912V34.8096Z" fill="white"/>
</mask>
<g mask="url(#mask15_402_827)">
<path d="M41.3058 36.842L40.8776 37.6048L40.6923 37.624L40.6868 37.2235L40.5325 36.8798L40.6936 36.872L40.7453 36.6657V35.8919L40.815 35.8762L40.8252 35.8351L40.9997 35.8704V36.8569L41.1204 36.8512L41.1315 36.842H41.3058Z" fill="#3A3680"/>
<path d="M41.1315 36.842L40.6924 37.624L40.3582 36.8798L40.571 36.8694V35.8919L40.8254 35.8351V36.8569L41.1315 36.842Z" fill="#F4829B"/>
</g>
<mask id="mask16_402_827" style="mask-type:luminance" maskUnits="userSpaceOnUse" x="19" y="40" width="5" height="5">
<path d="M19.84 40.5499H23.68V44.3899H19.84V40.5499Z" fill="white"/>
</mask>
<g mask="url(#mask16_402_827)">
<path d="M22.2338 42.5823L21.8055 43.3452L21.6203 43.3644L21.6148 42.9639L21.4604 42.6202L21.6216 42.6124L21.6733 42.406V41.6323L21.7429 41.6165L21.7532 41.5754L21.9276 41.6108V42.5973L22.0484 42.5915L22.0595 42.5823H22.2338Z" fill="#3A3680"/>
<path d="M22.0595 42.5823L21.6203 43.3644L21.2861 42.6202L21.499 42.6097V41.6323L21.7533 41.5754V42.5973L22.0595 42.5823Z" fill="#F4829B"/>
</g>
<mask id="mask17_402_827" style="mask-type:luminance" maskUnits="userSpaceOnUse" x="6" y="27" width="4" height="4">
<path d="M6.01599 27.1004H9.85599V30.9404H6.01599V27.1004Z" fill="white"/>
</mask>
<g mask="url(#mask17_402_827)">
<path d="M8.40985 28.9078L7.98156 28.145L7.79635 28.1258L7.79084 28.5262L7.63647 28.8699L7.79763 28.8778L7.84934 29.084V29.8579L7.91897 29.8735L7.92921 29.9148L8.10367 29.8794V28.8929L8.22438 28.8987L8.23551 28.9078H8.40985Z" fill="#3A3680"/>
<path d="M8.23541 28.9078L7.79624 28.1258L7.46204 28.8699L7.6749 28.8804V29.8579L7.92924 29.9148V28.8929L8.23541 28.9078Z" fill="#00CE79"/>
</g>
<mask id="mask18_402_827" style="mask-type:luminance" maskUnits="userSpaceOnUse" x="32" y="11" width="5" height="5">
<path d="M32.512 11.5522H36.352V15.3922H32.512V11.5522Z" fill="white"/>
</mask>
<g mask="url(#mask18_402_827)">
<path d="M34.9058 13.3596L34.4775 12.5968L34.2923 12.5776L34.2868 12.978L34.1324 13.3217L34.2936 13.3296L34.3453 13.5358V14.3097L34.4149 14.3253L34.4252 14.3665L34.5996 14.3312V13.3447L34.7204 13.3505L34.7315 13.3596H34.9058Z" fill="#3A3680"/>
<path d="M34.7314 13.3596L34.2922 12.5776L33.958 13.3217L34.1709 13.3322V14.3097L34.4252 14.3665V13.3447L34.7314 13.3596Z" fill="#00CE79"/>
</g>
</g>
</svg>
