<svg width="32" height="32" viewBox="0 0 32 32" fill="none" xmlns="http://www.w3.org/2000/svg">
<path d="M25.3334 8H6.66669C5.60582 8 4.58841 8.42143 3.83826 9.17157C3.08811 9.92172 2.66669 10.9391 2.66669 12V15.6267L11.7827 18.6667H20.2174L29.3334 15.6267V12C29.3334 10.9391 28.9119 9.92172 28.1618 9.17157C27.4116 8.42143 26.3942 8 25.3334 8Z" fill="#070707"/>
<path d="M13.3334 8V6.66667H18.6667V8H21.3334V6.66667C21.3326 5.95964 21.0515 5.28177 20.5515 4.78183C20.0516 4.28188 19.3737 4.00071 18.6667 4H13.3334C12.6263 4.00071 11.9485 4.28188 11.4485 4.78183C10.9486 5.28177 10.6674 5.95964 10.6667 6.66667V8H13.3334ZM11.7827 18.6667L2.66669 15.6267V24C2.66775 25.0605 3.08951 26.0773 3.83943 26.8273C4.58935 27.5772 5.60615 27.9989 6.66669 28H25.3334C26.3939 27.9989 27.4107 27.5772 28.1606 26.8273C28.9105 26.0773 29.3323 25.0605 29.3334 24V15.6267L20.2174 18.6667H11.7827Z" fill="black"/>
</svg>
