<svg width="14" height="15" viewBox="0 0 14 15" fill="none" xmlns="http://www.w3.org/2000/svg">
<path d="M5.66666 11.2L4.48666 12.3467C4.17724 12.6561 3.75758 12.8299 3.31999 12.8299C2.88241 12.8299 2.46275 12.6561 2.15333 12.3467C1.84391 12.0373 1.67008 11.6176 1.67008 11.18C1.67008 10.7424 1.84391 10.3228 2.15333 10.0134L5.17999 6.98002C5.47707 6.68198 5.87734 6.50954 6.298 6.49837C6.71866 6.48721 7.12752 6.63817 7.43999 6.92002L7.51999 6.98669C7.64641 7.11046 7.81682 7.17894 7.99373 7.17706C8.17064 7.17518 8.33956 7.10311 8.46333 6.97669C8.58709 6.85027 8.65557 6.67986 8.6537 6.50295C8.65182 6.32604 8.57975 6.15712 8.45333 6.03336C8.4157 5.98471 8.37565 5.93798 8.33333 5.89336C7.76423 5.39823 7.02821 5.13792 6.27437 5.16515C5.52053 5.19239 4.80521 5.50513 4.27333 6.04002L1.20666 9.07336C0.685564 9.64055 0.40374 10.3871 0.420042 11.1572C0.436345 11.9272 0.749514 12.6612 1.29415 13.2059C1.83878 13.7505 2.57277 14.0637 3.34282 14.08C4.11288 14.0963 4.85946 13.8145 5.42666 13.2934L6.57999 12.1667C6.69387 12.0425 6.75647 11.8797 6.7552 11.7112C6.75393 11.5427 6.68887 11.3809 6.57313 11.2584C6.45739 11.1359 6.29955 11.0617 6.13137 11.0509C5.96319 11.0401 5.79715 11.0934 5.66666 11.2ZM12.7933 1.70669C12.2325 1.14936 11.474 0.836548 10.6833 0.836548C9.89268 0.836548 9.13414 1.14936 8.57333 1.70669L7.41999 2.83336C7.30612 2.95759 7.24352 3.12034 7.24479 3.28887C7.24606 3.45739 7.31111 3.61918 7.42685 3.74168C7.54259 3.86418 7.70043 3.9383 7.86862 3.94912C8.0368 3.95995 8.20284 3.90667 8.33333 3.80002L9.48666 2.65336C9.79608 2.34394 10.2157 2.17011 10.6533 2.17011C11.0909 2.17011 11.5106 2.34394 11.82 2.65336C12.1294 2.96277 12.3032 3.38244 12.3032 3.82002C12.3032 4.25761 12.1294 4.67727 11.82 4.98669L8.79333 8.02002C8.49625 8.31806 8.09598 8.4905 7.67532 8.50167C7.25466 8.51284 6.8458 8.36188 6.53333 8.08002L6.45333 8.01336C6.32691 7.88959 6.1565 7.82111 5.97959 7.82298C5.80268 7.82486 5.63376 7.89694 5.50999 8.02336C5.38623 8.14978 5.31775 8.32018 5.31962 8.49709C5.3215 8.674 5.39357 8.84292 5.51999 8.96669C5.56842 9.01621 5.61961 9.06296 5.67333 9.10669C6.24311 9.60032 6.97881 9.85966 7.73219 9.83244C8.48558 9.80522 9.20065 9.49348 9.73333 8.96002L12.7667 5.92669C13.3275 5.36941 13.6452 4.61284 13.6502 3.82219C13.6552 3.03153 13.3471 2.27102 12.7933 1.70669Z" fill="#2E334D"/>
</svg>
